<svg aria-hidden="true" style="position: absolute; width: 0; height: 0; overflow: hidden;" version="1.1" xmlns="http://www.w3.org/2000/svg" xmlns:xlink="http://www.w3.org/1999/xlink">
<defs>
<symbol id="password" viewBox="0 0 32 32">
<path d="M23.68 10.88h-1.28v-2.56c0-3.533-2.867-6.4-6.4-6.4s-6.4 2.867-6.4 6.4v2.56h-1.28c-1.408 0-2.56 1.152-2.56 2.56v12.8c0 1.408 1.152 2.56 2.56 2.56h15.36c1.408 0 2.56-1.152 2.56-2.56v-12.8c0-1.408-1.152-2.56-2.56-2.56zM16 22.4c-1.408 0-2.56-1.152-2.56-2.56s1.152-2.56 2.56-2.56c1.408 0 2.56 1.152 2.56 2.56s-1.152 2.56-2.56 2.56zM19.968 10.88h-7.936v-2.56c0-2.189 1.779-3.968 3.968-3.968s3.968 1.779 3.968 3.968v2.56z"></path>
</symbol>
<symbol id="pen" viewBox="0 0 32 32">
<path stroke-linejoin="round" stroke-linecap="round" stroke-miterlimit="4" stroke-width="2.7429" d="M24 13.334l-5.333-5.333M3.333 28.667l4.513-0.502c0.551-0.061 0.827-0.092 1.085-0.175 0.229-0.074 0.446-0.178 0.647-0.311 0.226-0.149 0.422-0.345 0.814-0.737l17.608-17.608c1.473-1.473 1.473-3.861 0-5.333s-3.861-1.473-5.333 0l-17.608 17.608c-0.392 0.392-0.588 0.588-0.737 0.814-0.132 0.201-0.237 0.418-0.311 0.647-0.083 0.258-0.114 0.533-0.175 1.085l-0.501 4.513z"></path>
</symbol>
<symbol id="wallet" viewBox="0 0 32 32">
<path d="M3.52 7.143 18.72 2.889l-.805-1.668C17.387.137 16.103-.31 15.045.23L1.44 7.143h2.08ZM23.262 2.857c-.183 0-.366.027-.549.082l-3.472 1.039L8.64 7.143h17.279l-.65-2.605c-.249-1.016-1.09-1.68-2.006-1.68Z" fill="#24CCA7"/><path d="M26.587 8.037H1.688A1.686 1.686 0 0 0 .06 9.27C.024 9.41 0 9.558 0 9.708V28.33C0 29.25.755 30 1.684 30h24.9c.93 0 1.684-.749 1.684-1.671v-4.663h-9.995c-1.58 0-2.864-1.273-2.864-2.84V17.107c0-.768.31-1.467.812-1.978a2.844 2.844 0 0 1 2.049-.86h9.998V9.709a1.674 1.674 0 0 0-1.68-1.67Z" fill="#4A56E2"/><path d="M29.45 15.868a1.683 1.683 0 0 0-1.134-.438H18.273c-.93 0-1.685.75-1.685 1.672v3.72c0 .922.755 1.67 1.685 1.67H28.316c.192 0 .373-.033.545-.09.223-.073.421-.193.59-.347A1.66 1.66 0 0 0 30 20.822v-3.72c0-.488-.212-.93-.55-1.234Zm-7.66 3.426a.84.84 0 0 1-.842.836h-.56a.84.84 0 0 1-.842-.836v-.555c0-.267.125-.504.324-.655a.855.855 0 0 1 .518-.18H20.948a.84.84 0 0 1 .842.835v.555Z" fill="#4A56E2"/>
</symbol>
</defs>
</svg>